<?xml version="1.0" encoding="UTF-8" standalone="no"?>
<!-- Created with Inkscape (http://www.inkscape.org/) -->

<svg
   xmlns:dc="http://purl.org/dc/elements/1.1/"
   xmlns:cc="http://creativecommons.org/ns#"
   xmlns:rdf="http://www.w3.org/1999/02/22-rdf-syntax-ns#"
   xmlns:svg="http://www.w3.org/2000/svg"
   xmlns="http://www.w3.org/2000/svg"
   version="1.1"
   width="307.3559"
   height="41.900665"
   viewBox="0 0 0.42688319 0.058195368"
   id="body">
  <title
     id="title3">SVG drawing</title>
  <desc
     id="desc5">This was produced by version 4.3 of GNU libplot, a free library for exporting 2-D vector graphics.</desc>
  <metadata
     id="metadata3675">
    <rdf:RDF>
      <cc:Work
         rdf:about="">
        <dc:format>image/svg+xml</dc:format>
        <dc:type
           rdf:resource="http://purl.org/dc/dcmitype/StillImage" />
        <dc:title>SVG drawing</dc:title>
      </cc:Work>
    </rdf:RDF>
  </metadata>
  <defs
     id="defs3673" />
  <g
     transform="matrix(0.0017361,0,0,-0.0017361,-0.13062193,1.3179169)"
     id="content"
     xml:space="preserve"
     style="font-style:normal;font-variant:normal;font-weight:normal;font-stretch:normal;letter-spacing:normal;word-spacing:normal;text-anchor:start;fill:none;stroke:#000000;stroke-linecap:butt;stroke-linejoin:miter;stroke-miterlimit:10.43299961;stroke-opacity:1;stroke-dasharray:none;stroke-dashoffset:0">
<path
   d="m 99.031,755.49 -0.069,-0.04 -0.067,-0.04 -0.066,-0.04 -0.064,-0.03 -0.063,-0.04 -0.061,-0.04 -0.06,-0.03 -0.059,-0.03 -0.058,-0.03 -0.057,-0.03 -0.111,-0.06 -0.107,-0.05 -0.105,-0.05 -0.104,-0.05 -0.102,-0.04 -0.102,-0.04 -0.102,-0.04 -0.103,-0.04 -0.105,-0.03 -0.106,-0.04 -0.11,-0.04 c -1.434,-0.42 -2.746,-0.42 -4.609,-0.42 -1.961,0 -2.961,-0.15 -3.063,-0.47 v -20.34 c 0,-0.83 0.969,-1.16 2.906,-1.19 0.239,0 1.27,-0.01 2.188,-0.03 0.719,-0.37 1.125,-0.23 1.125,-0.51 -0.074,-0.29 -0.074,-0.29 -0.219,-0.46 -3.055,0.05 -5.781,0.08 -8.187,0.08 -1.438,-0.03 -2.418,-0.13 -3.75,-0.41 -1.336,-0.5 -2.094,-0.42 -2.344,-0.42 -0.899,-0.08 -0.984,0.38 -0.984,1.13 l 4.781,0.75 c 0.172,0.26 0.515,2.18 0.515,5.65 l -0.031,11.74 c -0.023,1.68 -0.117,3.09 -0.281,3.73 -0.375,0.48 -0.477,0.85 -1.016,0.85 h -1.218 c -0.184,-0.04 -0.247,0.01 -0.672,0.04 -0.731,-0.04 -0.86,0 -1.203,0 -2.321,-0.04 -3.407,-0.14 -3.875,-0.42 -0.743,-0.57 -0.75,-0.87 -0.75,-1.62 v -0.97 c -1.141,-0.05 -1.219,0.41 -1.219,1.25 -0.254,0.6 0.246,1.45 0.734,2.17 0.5,0.78 2.149,1.45 4.453,1.45 0.422,0 2.688,-0.04 5.844,-0.12 2.891,-0.4 5.539,-0.16 7.156,-0.16 3.035,-0.24 5.032,0.21 5.032,0.63 -0.329,-0.02 -0.106,0.28 -0.313,0.53 -0.414,-0.02 -0.281,0.48 -0.281,0.62 -0.133,-0.04 0.054,0.24 0.172,0.36 0.695,0.37 1.5,0.99 1.843,0.99 0.176,-0.29 0.576,-0.14 0.786,-0.41 0.12,-0.4 0.28,-0.51 0.28,-0.78 -0.16,-0.93 -0.67,-1.51 -2.019,-2.41 z"
   id="path9"
   style="fill:#fff;stroke-width:0" />
<path
   d="m 113.17,733.76 0.02,-0.01 0.03,-0.01 0.02,-0.01 0.03,0 0.03,0.01 0.03,0.01 0.04,0.01 0.04,0.02 0.04,0.01 0.04,0.03 0.05,0.02 0.04,0.03 0.05,0.04 0.06,0.03 0.05,0.04 0.06,0.04 0.06,0.05 0.06,0.05 0.07,0.05 0.07,0.05 0.07,0.06 0.07,0.05 0.07,0.06 0.08,0.07 0.08,0.06 0.08,0.07 0.09,0.07 0.09,0.07 0.09,0.07 0.09,0.07 0.1,0.08 0.09,0.07 c 0.14,-0.58 0.66,-0.6 0.66,-0.82 -0.18,-0.61 -0.27,-0.56 -0.8,-0.82 -0.58,-0.22 -0.86,-0.45 -1.58,-0.83 -0.46,-0.38 -0.82,-0.55 -1.23,-0.81 -0.87,-0.5 -0.98,-0.5 -1.28,-0.5 -0.47,0 -0.44,0.1 -0.55,0.31 -0.13,0.08 -0.14,0.68 -0.14,1.49 -0.32,0.1 0.01,0.84 0.03,1.42 0,0.52 0,0.95 0,1.08 0,2.36 -0.18,4.23 -0.53,5.31 -0.68,1.53 -1.56,2.67 -3.11,2.81 -0.34,-0.14 -0.74,-0.18 -1.58,-0.54 -1.08,-0.66 -1.29,-0.62 -1.39,-0.75 -0.18,-0.09 -0.08,-0.58 -0.08,-1.61 -0.1,-0.78 0.03,-1.7 0.08,-3.27 -0.11,-1.68 0.03,-2.7 0.03,-3.33 -0.14,-1.04 0,-1.25 -0.01,-1.53 -0.74,-0.45 -1.74,-0.79 -3.41,-1.39 -0.1,0.18 -0.15,0.9 -0.15,2.16 -0.286,0.69 0.03,2.8 0.09,6.17 -0.274,3.27 0.06,6.1 0.06,8.19 v 1.14 c 0,1.64 -0.12,3.05 -0.373,3.56 -0.367,0.3 -0.762,0.91 -1.813,1.59 -0.519,-0.09 -0.375,0.32 -0.375,0.43 -0.144,0.08 0.149,0.25 0.438,0.28 0.043,-0.13 1.082,0.22 2.253,0.53 1.02,0.26 1.79,0.42 2.2,0.42 0.22,-0.16 0.58,-0.1 0.73,-0.3 -0.06,-2.35 -0.06,-4.39 -0.06,-6.29 0,-3.78 0.02,-5.24 0.08,-5.28 -0.01,-0.18 0.14,0.09 0.36,0.21 1.26,0.52 2.73,1.19 3.98,1.19 1.11,0 2.5,-0.44 3.75,-1.31 1.16,-1.08 1.83,-3.71 1.83,-8.59 z"
   id="path11"
   style="fill:#fff;stroke-width:0" />
<path
   d="m 129.875,-76.53125 c -5.48746,0 -8.41875,2.893786 -8.78125,8.46875 -0.0375,0.487497 -0.0312,0.999999 -0.0312,0.875 0,2.624983 0.38751,4.912508 2.375,6.1875 1.34999,1.299992 2.64376,1.96875 4.84375,1.96875 1.41249,0 3.15627,-0.418757 5.84375,-1.53125 1.16249,-1.074993 1.8,-1.837504 2.5,-2.4375 -0.375,-0.562496 -0.9875,-0.481252 -0.9375,-0.84375 -0.3125,0 -1.01251,0.768752 -2.0625,1.15625 -1.07499,0.762495 -2.35,1.15625 -2.875,1.15625 -1.86249,0 -3.41876,-0.425008 -4.40625,-1.75 -1.02499,-1.062493 -1.53125,-2.150011 -1.53125,-3.9375 0,-0.549996 0.80002,-1.15626 3.6875,-2.65625 2.71248,-1.274992 4.39376,-1.831256 6.09375,-2.78125 l 0.0625,-0.03125 0.0312,-0.03125 0.0312,0 0.0312,-0.03125 0.0625,0 0.0312,-0.03125 0.0312,0 0.0312,-0.03125 0.0625,-0.03125 0.0625,-0.03125 0.0625,-0.03125 0.0625,-0.03125 0.0312,-0.03125 0.0312,0 L 135.25,-73 l 0.0625,0 0.0312,-0.03125 0.0312,0 0.0625,-0.03125 0.0312,-0.03125 0.0625,0 0.0312,-0.03125 0.0625,-0.03125 0.0625,0 0.0625,-0.03125 0.0625,-0.03125 0.0625,-0.03125 0.0312,-0.03125 0.0312,0 c 0.79999,-0.399997 0.84375,-0.668752 1.21875,-0.90625 0,-0.562496 -0.38125,-0.518752 -0.71875,-0.84375 -0.1625,0 -0.70625,0.34375 -0.84375,0.34375 -0.4,0.212499 -0.65625,0.424999 -0.71875,0.3125 -0.2,0 -1.05,-0.293755 -1.625,-1.03125 -1.01249,-0.749995 -2.17501,-1.125 -3.375,-1.125 z m -2,1.875 0.15625,0 c 0.1375,0 0.32501,0.612503 1.5,1.0625 0.81249,0.699996 0.89375,1.375 1.21875,1.3125 0,0.112499 -1.15626,0.787502 -2.40625,1.125 -1.46249,0.612496 -2.63125,1.3125 -3.40625,1.3125 l 0.0625,-0.3125 0.0625,-0.28125 0.0625,-0.28125 0.0937,-0.25 0.0625,-0.25 0.0937,-0.25 0.0625,-0.25 0.0625,-0.21875 0.0937,-0.21875 0.0625,-0.1875 0.0937,-0.1875 0.0625,-0.1875 0.0937,-0.1875 0.0937,-0.1875 0.0625,-0.125 0.125,-0.15625 0.0625,-0.15625 0.125,-0.125 0.0937,-0.125 0.0937,-0.125 0.0937,-0.09375 0.0937,-0.09375 0.125,-0.09375 0.125,-0.09375 0.125,-0.0625 0.0937,-0.0625 0.125,-0.0625 0.15625,-0.0625 0.125,-0.0625 0.125,-0.03125 0.125,-0.03125 z"
   transform="matrix(0.80000512,0,0,-0.80000512,18.000115,684.00438)"
   id="path13"
   style="fill:#fff;stroke-width:0" />

<path
   d="m 167.0625,-90.28125 c -1.77499,0 -3.95626,0.818753 -5.90625,1.34375 -1.86249,0.812495 -3.34375,2.031252 -3.96875,2.40625 -0.7375,0.749995 -1.71875,2.400014 -2.46875,4.625 -1.08749,2.812482 -1.6625,5.450015 -1.625,7.75 0,0.812495 -0.0312,1.687504 0.21875,2.3125 0.78749,3.824976 1.48751,6.83751 3.3125,8.4375 1.89999,2.374985 4.44378,3.837503 8.65625,4.375 l 1.09375,0 c 2.52498,0 5.98753,-0.837513 10.375,-2.9375 l 0,7.28125 c 0.3875,-0.1 0.38125,0.118747 0.71875,-0.28125 l 0.21875,-0.1875 c 0.0625,-0.05 0.1625,-0.075 0.3125,-0.125 l 0,-8.1875 c 0,-0.112499 0,-2.40628 0.5625,-7.09375 0.3625,-4.574971 0.15625,-6.562504 0.53125,-7.1875 -1.53749,0.262498 -2.725,0.649998 -3.5,0.375 -0.675,0 -1.14375,0.287497 -1.03125,-0.125 0,-1.024993 0.71251,-3.631284 2.8125,-8.96875 0.4125,-1.049993 0.625,-1.500004 0.75,-2.1875 -0.15,-0.0875 -0.63125,0.212498 -0.28125,-0.125 -0.2875,-0.199999 -0.66875,-0.3 -0.59375,-0.3125 -0.3625,0 -1.35626,1.262515 -2.59375,3.625 -0.175,-0.112499 -0.74375,-0.04376 -1.03125,-0.78125 -3.19998,-2.687483 -5.48751,-4.03125 -6.5625,-4.03125 z m -3,3.34375 c 0.025,0 -0.34375,0.124999 0.0937,0 1.44999,0 3.16251,1.375015 5.25,3.75 1.83749,2.212486 3.04375,4.41876 3.65625,5.90625 -1.84999,0.487497 -6.47504,0.75 -13.0625,0.75 -0.6375,0 -1.31875,-0.01875 -1.28125,-0.21875 -0.2375,-0.162499 -0.4875,-0.518754 -0.5,-1.21875 0,-1.974987 0.33751,-3.568765 2.0625,-5.96875 l 0.125,-0.1875 0.125,-0.1875 0.125,-0.15625 0.0937,-0.15625 0.125,-0.15625 0.125,-0.15625 0.125,-0.15625 0.0937,-0.125 0.0937,-0.125 0.125,-0.125 0.125,-0.125 0.0937,-0.125 0.0937,-0.09375 0.125,-0.09375 0.0937,-0.125 0.125,-0.0625 0.0937,-0.09375 0.125,-0.09375 0.0937,-0.0625 0.125,-0.09375 0.125,-0.0625 0.0937,-0.0625 0.125,-0.0625 0.125,-0.03125 0.125,-0.0625 0.125,-0.0625 0.125,-0.03125 0.125,-0.03125 0.125,-0.03125 0.15625,-0.03125 0.125,0 0.15625,-0.03125 z m 4.46875,12.90625 0.8125,0 0.8125,0 0.875,0 0.90625,0 0.90625,0 2.59375,0 c 0.93749,0.025 1.35625,0.431247 1.53125,0.03125 -0.1,2.087487 -0.15625,4.150008 -0.15625,5.375 -0.125,2.812482 -0.5625,4.75 -0.3125,4.6875 -1.77499,0.762495 -3.79376,1.15625 -5.78125,1.15625 -3.09998,0 -6.08126,-0.862511 -8.03125,-2.625 -2.26249,-1.799988 -3.84375,-3.831272 -4.46875,-7.28125 l 0.0312,-0.09375 0.0312,-0.0625 0.0625,-0.09375 0.0937,-0.09375 0.125,-0.0625 0.15625,-0.0625 0.1875,-0.0625 0.21875,-0.0625 0.21875,-0.0625 0.28125,-0.0625 0.28125,-0.0625 0.3125,-0.0625 0.34375,-0.03125 0.375,-0.0625 0.40625,-0.03125 0.4375,-0.0625 0.46875,-0.03125 0.5,-0.03125 0.5,-0.03125 0.5625,-0.03125 0.5625,-0.03125 0.625,-0.03125 0.65625,-0.03125 0.65625,-0.03125 0.71875,0 L 167.75,-74 l 0.78125,-0.03125 z"
   transform="matrix(0.80000512,0,0,-0.80000512,18.000115,684.00438)"
   id="path17"
   style="fill:#fff;stroke-width:0" />


<path
   d="m 172.09,733.49 -0.35,-0.21 -0.34,-0.21 -0.33,-0.19 -0.34,-0.18 -0.33,-0.18 -0.34,-0.16 -0.34,-0.15 -0.34,-0.14 -0.34,-0.13 -0.35,-0.13 -0.36,-0.11 -0.37,-0.11 -0.38,-0.1 -0.39,-0.09 -0.41,-0.08 -0.41,-0.08 c -0.21,0.11 -0.21,1.92 -0.21,5.42 0,3.52 0.03,8.56 0.08,14.71 -0.03,0.51 -0.57,1.38 -1.72,2.5 -0.37,0.04 -0.39,0.46 -0.39,0.64 0.05,0.17 1.22,0.61 2.55,1.04 1.27,0.36 2.4,0.69 2.89,0.69 0.16,0 0.44,-0.08 0.44,-0.25 -0.18,-0.92 0.15,-2.41 0.15,-5.23 0,-0.76 0,-1.21 0,-1.86 l -0.07,-15.17 c 0.79,0.44 1.76,0.9 2,0.9 0.07,-0.18 0.57,-0.2 0.57,-0.45 -0.16,-0.49 -0.19,-0.41 -0.57,-0.69 z"
   id="path23"
   style="fill:#fff;stroke-width:0" />
<path
   d="m 209.78125,-90.28125 c -1.11249,0 -2.86876,0.412501 -4.09375,0.625 -1.29062,0.33906 -2.08494,0.850562 -2.21875,0.875 0.0182,0.280672 0.37383,1.008274 1.25,1.3125 0.84999,0.624996 1.2,1.34375 1.625,1.40625 0.4,0.537497 0.625,3.706281 0.6875,8.59375 0.025,1.337491 0.0125,2.05 0.0625,2 l -4.34375,-1.0625 c -5.37497,0 -8.10625,2.893784 -8.21875,8.15625 l 0,0.375 c 0,2.962481 0.39376,5.518759 2.21875,6.96875 1.18749,1.312492 2.12501,2 3.875,2 1.33749,0 2.63751,-0.412507 4.1875,-1.5625 1.22499,-0.887494 1.55,-1.225001 2.125,-1.4375 0.025,1.987487 0.05,3 1.125,3 0.1125,0 0.61251,-0.0063 1.6875,-0.84375 l 1,-0.5625 c 0.325,-0.187499 0.35,-0.143751 0.5,-0.28125 l 0.0625,-0.03125 0.0625,-0.03125 0.0937,-0.0625 0.0625,-0.03125 0.0625,-0.03125 0.0625,-0.03125 0.0625,-0.03125 0.0625,-0.03125 0.0312,-0.03125 0.0625,-0.03125 0.0625,-0.03125 0.0625,-0.0625 0.0937,-0.03125 0.0937,-0.0625 0.0937,-0.0625 0.0937,-0.03125 0.0937,-0.0625 0.0937,-0.0625 0.0625,0 0.0625,-0.03125 0.0625,-0.03125 0.0312,0 0.0625,-0.03125 0.0625,0 0.0625,-0.03125 0.0625,0 c 0.6,-0.237498 0.68125,-0.231254 0.90625,-0.84375 0,-0.599996 -0.64375,-0.718751 -0.90625,-0.90625 -0.1625,0 -0.91251,0.587503 -1.9375,1.0625 -0.225,-0.0875 -0.3125,-0.250003 -0.3125,-0.75 l 0,-24.78125 c 0,-0.075 -0.006,-0.075 0.0937,-0.5625 0.0125,-0.262498 -0.0188,-0.468751 0.0312,-0.65625 0,-0.837495 -0.4625,-1.25 -1.125,-1.25 z m -6.65625,15 c 0.375,0 0.83751,0.818753 2.0625,1.34375 l 0.125,0.125 0.125,0.09375 0.0937,0.09375 0.0937,0.125 0.0937,0.09375 0.0937,0.125 0.0937,0.09375 0.0937,0.09375 0.0937,0.125 0.0625,0.09375 0.0937,0.09375 0.0625,0.125 0.0625,0.09375 0.0625,0.09375 0.0625,0.125 0.0625,0.09375 0.0625,0.09375 0.0625,0.125 0.0312,0.09375 0.0312,0.09375 0.0625,0.125 0.0312,0.09375 0.0312,0.09375 0.0312,0.09375 0.0312,0.09375 0.0312,0.09375 0,0.09375 0.0312,0.09375 0,0.09375 0,0.09375 0.0312,0.09375 0,0.0625 0,5.15625 c 0,0.874994 -0.85,1.806256 -1.5625,2.71875 -0.96249,0.874994 -2.1,1.3125 -2.25,1.3125 -1.42499,0 -2.66876,-0.837511 -3.59375,-2.5 -0.91249,-1.52499 -1.34375,-3.193763 -1.34375,-5.21875 0,-1.712489 0.006,-2.881258 1.15625,-4.15625 0.86249,-1.249992 1.71251,-1.875 3.6875,-1.875 z"
   transform="matrix(0.80000512,0,0,-0.80000512,18.000115,684.00438)"
   id="path25"
   style="fill:#fff;stroke-width:0" />

<path
   d="m 223.75,-76.53125 c -5.49996,0 -8.45,2.893786 -8.8125,8.46875 -0.025,0.487497 -0.0312,0.999999 -0.0312,0.875 0,2.624983 0.41876,4.912508 2.40625,6.1875 1.34999,1.299992 2.63126,1.96875 4.84375,1.96875 1.39999,0 3.15627,-0.418757 5.84375,-1.53125 1.17499,-1.074993 1.8,-1.837504 2.5,-2.4375 -0.375,-0.562496 -0.975,-0.481252 -0.9375,-0.84375 -0.3,0 -1.00001,0.768752 -2.0625,1.15625 -1.06249,0.762495 -2.35,1.15625 -2.875,1.15625 -1.87499,0 -3.45001,-0.425008 -4.4375,-1.75 -1.02499,-1.062493 -1.53125,-2.150011 -1.53125,-3.9375 0,-0.549996 0.83127,-1.15626 3.71875,-2.65625 2.71248,-1.274992 4.40626,-1.831256 6.09375,-2.78125 l 0.0312,-0.03125 0.0625,-0.03125 0.0312,0 0.0312,-0.03125 0.0625,0 0.0312,-0.03125 0.0312,0 0.0312,-0.03125 0.0625,-0.03125 0.0625,-0.03125 0.0625,-0.03125 0.0625,-0.03125 0.0312,-0.03125 0.0312,0 0.0312,-0.03125 0.0625,0 0.0312,-0.03125 0.0312,0 0.0625,-0.03125 0.0312,-0.03125 0.0312,0 0.0625,-0.03125 0.0625,-0.03125 0.0625,0 0.0625,-0.03125 0.0625,-0.03125 0.0625,-0.03125 0.0312,-0.03125 0.0312,0 c 0.81249,-0.399997 0.84375,-0.668752 1.21875,-0.90625 0,-0.562496 -0.39375,-0.518752 -0.71875,-0.84375 -0.175,0 -0.70625,0.34375 -0.84375,0.34375 -0.3875,0.212499 -0.65625,0.424999 -0.71875,0.3125 -0.1875,0 -1.0625,-0.293755 -1.625,-1.03125 -1.02499,-0.749995 -2.18751,-1.125 -3.375,-1.125 z m -2,1.875 0.15625,0 c 0.15,0 0.29376,0.612503 1.46875,1.0625 0.82499,0.699996 0.925,1.375 1.25,1.3125 0,0.112499 -1.15626,0.787502 -2.40625,1.125 -1.46249,0.612496 -2.63125,1.3125 -3.40625,1.3125 l 0.0625,-0.3125 0.0625,-0.28125 0.0625,-0.28125 0.0625,-0.25 0.0937,-0.25 0.0625,-0.25 0.0937,-0.25 0.0625,-0.21875 0.0625,-0.21875 0.0937,-0.1875 0.0937,-0.1875 0.0625,-0.1875 0.0937,-0.1875 0.0937,-0.1875 0.0625,-0.125 0.0937,-0.15625 0.0937,-0.15625 0.0937,-0.125 0.0937,-0.125 0.125,-0.125 0.0937,-0.09375 0.0937,-0.09375 0.125,-0.09375 0.125,-0.09375 0.0937,-0.0625 0.125,-0.0625 0.125,-0.0625 0.125,-0.0625 0.125,-0.0625 0.15625,-0.03125 0.125,-0.03125 z"
   transform="matrix(0.80000512,0,0,-0.80000512,18.000115,684.00438)"
   id="path29"
   style="fill:#fff;stroke-width:0" />

<path
   d="m 213.85,741.99 -0.03,-0.01 -0.03,-0.01 -0.03,-0.01 -0.02,-0.01 -0.03,0 -0.03,-0.01 -0.02,-0.01 -0.03,0 -0.02,-0.01 -0.02,0 -0.02,0 -0.03,0 -0.02,0 -0.02,0 -0.04,0 -0.03,0 -0.04,0.01 -0.03,0.01 -0.04,0.01 -0.03,0.02 -0.03,0.02 -0.03,0.02 -0.02,0.02 -0.03,0.02 -0.03,0.02 -0.03,0.03 -0.02,0.03 -0.03,0.03 -0.03,0.03 -0.02,0.03 -0.03,0.03 -0.03,0.03 -0.03,0.03 -0.03,0.03 -0.03,0.04 -0.04,0.03 -0.03,0.03 -0.04,0.04 -0.04,0.03 c -0.74,0.29 -0.87,0.59 -1.22,0.64 -0.38,-0.33 -0.66,-0.31 -1.42,-0.86 -0.84,-0.6 -1.17,-0.91 -1.17,-0.97 v -8.25 c -0.07,-0.54 -0.51,-0.62 -1.31,-1.08 -1.11,-0.75 -1.6,-0.75 -2.16,-0.75 -0.53,0.06 -0.53,1.11 -0.53,3.14 0,0.61 0.02,1.67 0.08,3.03 -0.01,1.31 0.03,2.3 0.03,2.8 -0.04,0.3 -0.03,1.09 -0.08,1.39 -0.14,0.68 -0.65,1.35 -1.59,1.63 -0.68,-0.17 -0.8,0.41 -0.8,0.75 -0.19,-0.06 0.25,0.31 0.69,0.39 0.14,-0.03 0.67,0.06 1.28,0.12 0.48,0.01 1.5,0.27 2.45,0.52 0.58,-0.1 1.01,0.23 1.21,0.23 0.34,-0.08 0.65,-0.32 0.65,-0.7 -0.31,-0.2 -0.01,-0.27 -0.03,-0.49 -0.34,-0.5 -0.06,-0.38 -0.06,-0.46 -0.28,-0.32 0.08,-0.33 0.26,-0.39 0.01,-0.32 0.6,0.33 1.68,1 0.89,0.37 1.89,1.04 2.23,1.04 0.24,0 0.66,-0.1 1.27,-0.31 0.61,-0.45 1.07,-0.45 1.14,-0.67 -0.36,-0.45 -0.42,-0.81 -0.61,-1.11 -0.72,-1.06 -0.74,-1.14 -0.86,-1.16 z"
   id="path33"
   style="fill:#fff;stroke-width:0" />
<path
   d="m 271.53125,-90.28125 c -3.12498,0 -5.75626,1.656265 -7.59375,4.03125 -1.88749,2.574984 -2.84375,5.806274 -2.84375,9.53125 0,1.699989 -0.0187,3.431255 1.15625,4.21875 0.89999,1.249992 1.77501,1.987499 3.75,1.875 1.08749,0 3.17503,-0.306258 7.1875,-1.53125 3.58748,-0.974994 5.39376,-1.193752 6.46875,-1.46875 1.24999,0 2.15625,0.712505 2.90625,1.5 0.6875,0.974994 1.03125,2.41251 1.03125,3.9375 0,1.224992 -0.4125,3.018758 -0.875,4.21875 -0.83749,2.337485 -2.20626,3.987504 -3.53125,4.5625 -0.5,0.249998 -1.5375,0.375 -2,0.375 -2.18749,0 -5.46252,-0.862514 -8.9375,-3 -2.73748,-1.462491 -4.70625,-2.150005 -4.96875,-3 -0.5125,0 -1.23125,1.575018 -1.21875,4.375 -1.12499,3.674976 -2.275,6.300008 -2.5,7.5 0,0.212499 0.0625,0.774999 0.4375,0.6875 0.275,0.237498 0.2125,0.543749 0.625,0.34375 0.25,0 0.41875,-0.231257 0.84375,-1.28125 0.3125,-0.999994 0.175,-1.625005 0.6875,-2.375 0.6125,-2.187486 0.6875,-3.25 1.375,-3.25 0.125,0 0.54376,0.387499 1.40625,0.1875 4.04997,0.687496 6.93752,1.0625 9.5625,1.0625 l 0.0312,0 0.0312,0 0.0312,0 0.0312,0 0.0312,0 0.0312,0 0.0312,0 0.0312,0 0.0312,0 0.0312,0 0.0625,0 0.0312,0 0.0312,0 c 3.93747,-0.1 6.82502,-1.350021 9.375,-4.5625 2.01249,-2.562484 3.03125,-5.650023 3.03125,-9.25 0,-2.137486 -0.8375,-3.36251 -1.3125,-4.875 -0.91249,-1.099993 -2.55001,-1.556256 -4.5625,-2.53125 -0.475,0 -1.01875,-0.01875 -0.71875,-0.21875 0,-1.062493 0.53126,-2.662517 2.09375,-5.3125 1.11249,-1.962487 1.79375,-3.031253 2.21875,-3.46875 0,-0.274998 -0.50625,-0.200004 -0.40625,-0.75 -0.25,-0.187499 -0.5875,-0.28125 -0.75,-0.28125 -0.4,0 -1.33125,0.837506 -1.84375,1.75 -0.64968,0.959056 -1.28855,1.549442 -1.34375,1.6875 -0.11006,-0.04169 -1.59969,-0.75202 -3.46875,-2.28125 -2.34998,-1.57499 -4.38126,-2.36875 -5.53125,-2.40625 l -0.1875,0 z m -2.78125,2.5 0.125,0 0.15625,0 0.15625,0 c 1.68749,0 4.81253,3.325036 9.5,8.875 -0.675,0.499997 -2.36877,1.287503 -5.03125,1.8125 -2.54998,0.699996 -4.66875,1.312498 -5.21875,1.0625 -1.17499,0 -2.36875,-0.175007 -2.71875,-1.3125 -0.5875,-0.812495 -0.875,-1.793758 -0.875,-3.03125 0,-2.074987 -0.0125,-3.706259 1,-5.15625 l 0.0937,-0.125 0.0625,-0.15625 0.0625,-0.125 0.0937,-0.125 0.0625,-0.125 0.0937,-0.125 0.0625,-0.09375 0.0937,-0.125 0.0937,-0.09375 0.0625,-0.09375 0.0937,-0.09375 0.0937,-0.09375 0.0937,-0.09375 0.0937,-0.09375 0.0937,-0.0625 0.0937,-0.0625 0.0937,-0.0625 0.125,-0.0625 0.0937,-0.0625 0.125,-0.0625 0.0937,-0.0625 0.125,-0.03125 0.125,-0.0625 0.0937,-0.03125 0.125,-0.03125 0.15625,-0.03125 0.125,-0.03125 0.125,0 0.15625,-0.03125 z"
   transform="matrix(0.80000512,0,0,-0.80000512,18.000115,684.00438)"
   id="path35"
   style="fill:#fff;stroke-width:0" />

<path
   d="m 256.24,731.24 -0.23,0 -0.22,0.01 -0.22,0.01 -0.21,0.01 -0.21,0.02 -0.2,0.02 -0.2,0.02 -0.19,0.03 -0.19,0.03 -0.18,0.03 -0.18,0.04 -0.18,0.04 -0.17,0.04 -0.16,0.05 -0.17,0.05 -0.15,0.06 -0.16,0.06 -0.15,0.06 -0.15,0.07 -0.14,0.07 -0.14,0.07 -0.13,0.08 -0.14,0.08 -0.12,0.08 -0.13,0.09 -0.12,0.09 -0.12,0.09 -0.12,0.1 -0.12,0.1 -0.11,0.11 -0.11,0.11 -0.1,0.11 c -1.08,0.72 -1.41,2.33 -1.41,4 0,1.88 0.56,4 1.69,5.53 1.09,1.64 3.17,2.64 5.55,2.64 0.68,0 1.72,-0.2 2.9,-0.59 1.4,-0.62 2.17,-1.05 2.17,-1.69 -0.1,-0.56 -0.67,-0.88 -2.01,-1.67 -0.21,-0.02 -0.23,0.07 -0.38,0.22 -0.41,0.01 -0.21,0.2 -0.31,0.29 -1.87,1.44 -3.03,2.44 -4.08,2.44 -0.9,0 -1.34,-0.56 -1.83,-1.67 -0.7,-1.14 -0.7,-2.16 -0.7,-3.37 0,-2.02 0.44,-3.09 1.31,-4.16 0.88,-1.47 2.39,-1.8 4.24,-1.8 0.41,0 1.28,0.38 2.08,1.14 0.58,0.72 1.24,1.16 1.36,1.16 -0.18,-0.1 0.32,-0.09 0.5,-0.27 0.04,-0.22 0.31,-0.36 0.31,-0.47 -0.27,-0.48 -0.64,-0.91 -1.92,-1.85 -1.79,-1.38 -2.94,-1.71 -4.35,-1.71 z"
   id="path39"
   style="fill:#fff;stroke-width:0" />
<path
   d="m 273.36,741.99 -0.03,-0.01 -0.02,-0.01 -0.03,-0.01 -0.03,-0.01 -0.03,0 -0.02,-0.01 -0.03,-0.01 -0.02,0 -0.02,-0.01 -0.03,0 -0.02,0 -0.02,0 -0.02,0 -0.02,0 -0.04,0 -0.04,0 -0.03,0.01 -0.04,0.01 -0.03,0.01 -0.03,0.02 -0.03,0.02 -0.03,0.02 -0.03,0.02 -0.03,0.02 -0.02,0.02 -0.03,0.03 -0.03,0.03 -0.02,0.03 -0.03,0.03 -0.03,0.03 -0.03,0.03 -0.02,0.03 -0.03,0.03 -0.04,0.03 -0.03,0.04 -0.03,0.03 -0.04,0.03 -0.03,0.04 -0.04,0.03 c -0.74,0.29 -0.88,0.59 -1.22,0.64 -0.39,-0.33 -0.66,-0.31 -1.42,-0.86 -0.84,-0.6 -1.17,-0.91 -1.17,-0.97 v -8.25 c -0.08,-0.54 -0.52,-0.62 -1.32,-1.08 -1.1,-0.75 -1.59,-0.75 -2.15,-0.75 -0.53,0.06 -0.53,1.11 -0.53,3.14 0,0.61 0.02,1.67 0.07,3.03 0,1.31 0.04,2.3 0.04,2.8 -0.04,0.3 -0.03,1.09 -0.08,1.39 -0.14,0.68 -0.66,1.35 -1.6,1.63 -0.67,-0.17 -0.79,0.41 -0.79,0.75 -0.19,-0.06 0.25,0.31 0.68,0.39 0.14,-0.03 0.68,0.06 1.29,0.12 0.48,0.01 1.5,0.27 2.45,0.52 0.58,-0.1 1,0.23 1.2,0.23 0.35,-0.08 0.66,-0.32 0.66,-0.7 -0.31,-0.2 -0.01,-0.27 -0.03,-0.49 -0.34,-0.5 -0.07,-0.38 -0.07,-0.46 -0.27,-0.32 0.09,-0.33 0.27,-0.39 0.01,-0.32 0.6,0.33 1.67,1 0.89,0.37 1.89,1.04 2.24,1.04 0.23,0 0.66,-0.1 1.26,-0.31 0.61,-0.45 1.08,-0.45 1.14,-0.67 -0.35,-0.45 -0.42,-0.81 -0.61,-1.11 -0.71,-1.06 -0.73,-1.14 -0.86,-1.16 z"
   id="path41"
   style="fill:#fff;stroke-width:0" />
<path
   d="m 331.0625,-76.53125 c -0.3,0 -0.7375,0.399998 -0.9375,0.125 -2.86248,0.774995 -5.10001,1.575003 -6,2.0625 -2.11249,1.124993 -3.575,2.88126 -3.4375,4.46875 -0.1375,1.224992 -0.4375,2.325005 -0.1875,3.125 0,1.57499 0.1625,2.881254 0.625,3.46875 1.49999,2.699983 3.96252,4.125001 7.4375,4.25 l 0.15625,0 c 1.54999,0 3.14376,-0.41876 5.21875,-1.90625 l 0.1875,-0.125 0.1875,-0.125 0.15625,-0.09375 0.1875,-0.125 0.15625,-0.125 0.15625,-0.125 0.15625,-0.09375 0.15625,-0.125 0.15625,-0.09375 0.125,-0.125 0.125,-0.125 0.15625,-0.125 0.125,-0.09375 0.125,-0.125 0.21875,-0.21875 0.25,-0.25 0.1875,-0.21875 0.1875,-0.25 0.1875,-0.25 0.1875,-0.28125 0.125,-0.25 0.15625,-0.28125 0.0625,-0.15625 0.0625,-0.15625 c 0.5125,-1.299992 0.78125,-2.275009 0.78125,-3.75 0,-2.312485 -1.26251,-4.106261 -2.625,-5.84375 -1.52499,-1.374991 -3.13751,-2.0625 -4.8125,-2.0625 z m -3.21875,1.78125 0.0312,0 c 1.21249,0 2.23751,0.668758 3.625,1.84375 1.32499,1.412491 2,3.106261 2,4.84375 0,2.624983 -0.41875,4.387504 -0.28125,4.9375 -0.35,1.199992 -1.53126,2.131248 -2.53125,1.78125 -2.41248,-0.624996 -4.40001,-1.500014 -5.375,-3.625 -0.87499,-1.337491 -1.4875,-2.700012 -1.3125,-4.5 0,-1.074993 0.275,-1.762508 0.875,-3 0.5875,-1.024993 1.36876,-1.568754 2.40625,-2.15625 l 0.0312,0 0.0312,0 0.0312,-0.03125 0.0312,0 0,0.03125 0.0312,0 0.0312,0 0.0312,0 0.0312,0 0.0312,0 0.0312,0 0.0312,-0.03125 0.0312,0 0.0312,0 0.0312,0 0,-0.03125 0.0312,0 0.0312,-0.03125 0.0312,0 0.0312,-0.03125 z"
   transform="matrix(0.80000512,0,0,-0.80000512,18.000115,684.00438)"
   id="path43"
   style="fill:#fff;stroke-width:0" />

<path
   d="m 298.19,733.49 -0.35,-0.21 -0.34,-0.21 -0.33,-0.19 -0.34,-0.18 -0.33,-0.18 -0.34,-0.16 -0.33,-0.15 -0.35,-0.14 -0.34,-0.13 -0.35,-0.13 -0.36,-0.11 -0.37,-0.11 -0.38,-0.1 -0.39,-0.09 -0.4,-0.08 -0.42,-0.08 c -0.2,0.11 -0.2,1.92 -0.2,5.42 0,3.52 0.02,8.56 0.07,14.71 -0.02,0.51 -0.57,1.38 -1.71,2.5 -0.38,0.04 -0.4,0.46 -0.4,0.64 0.06,0.17 1.23,0.61 2.55,1.04 1.27,0.36 2.4,0.69 2.89,0.69 0.16,0 0.44,-0.08 0.44,-0.25 -0.18,-0.92 0.16,-2.41 0.16,-5.23 0,-0.76 0,-1.21 0,-1.86 l -0.08,-15.17 c 0.79,0.44 1.77,0.9 2,0.9 0.08,-0.18 0.58,-0.2 0.58,-0.45 -0.17,-0.49 -0.2,-0.41 -0.58,-0.69 z"
   id="path47"
   style="fill:#fff;stroke-width:0" />
<path
   d="m 307.66,733.49 -0.34,-0.21 -0.34,-0.21 -0.34,-0.19 -0.34,-0.18 -0.33,-0.18 -0.33,-0.16 -0.34,-0.15 -0.34,-0.14 -0.35,-0.13 -0.35,-0.13 -0.36,-0.11 -0.37,-0.11 -0.38,-0.1 -0.39,-0.09 -0.4,-0.08 -0.42,-0.08 c -0.2,0.11 -0.2,1.92 -0.2,5.42 0,3.52 0.02,8.56 0.08,14.71 -0.03,0.51 -0.58,1.38 -1.72,2.5 -0.38,0.04 -0.39,0.46 -0.39,0.64 0.05,0.17 1.22,0.61 2.54,1.04 1.27,0.36 2.4,0.69 2.89,0.69 0.16,0 0.44,-0.08 0.44,-0.25 -0.18,-0.92 0.16,-2.41 0.16,-5.23 0,-0.76 0,-1.21 0,-1.86 l -0.08,-15.17 c 0.8,0.44 1.77,0.9 2,0.9 0.08,-0.18 0.58,-0.2 0.58,-0.45 -0.17,-0.49 -0.2,-0.41 -0.58,-0.69 z"
   id="path49"
   style="fill:#fff;stroke-width:0" />
<path
   d="m 320.54,735.01 -0.05,-0.11 -0.05,-0.1 -0.06,-0.1 -0.05,-0.1 -0.06,-0.1 -0.06,-0.09 -0.06,-0.09 -0.06,-0.09 -0.06,-0.08 -0.06,-0.09 -0.13,-0.16 -0.14,-0.15 -0.15,-0.15 -0.16,-0.14 -0.09,-0.07 -0.08,-0.07 -0.09,-0.07 -0.09,-0.07 -0.09,-0.07 -0.1,-0.06 -0.1,-0.07 -0.1,-0.07 -0.11,-0.07 -0.11,-0.07 -0.11,-0.07 -0.12,-0.07 -0.12,-0.07 -0.12,-0.07 c -1.75,-0.92 -2.92,-1.25 -4.42,-1.25 -0.61,0 -0.94,0 -1.47,0 -1.76,0.35 -2.64,1.11 -2.64,2.31 -0.12,0.87 0.7,1.63 2.09,1.99 1.3,-2.3 2.94,-3.3 4.49,-3.3 0.29,0 1.1,0.23 1.48,0.69 0.21,0.17 0.53,0.89 0.53,1.45 -0.32,0.58 -0.27,1.25 -0.82,1.88 -0.53,0.51 -0.97,0.83 -1.44,0.94 -0.69,-0.23 -1.06,0.14 -1.81,0.17 -1.31,-0.03 -1.63,0.04 -1.83,0.06 -1.41,0.05 -2.28,0.6 -2.66,1.47 -0.39,0.37 -0.39,1.16 -0.39,1.7 0,1.33 0.9,2.6 2.7,3.47 1.25,0.42 3.26,1.09 5.33,1.17 0.08,0 0.19,0 0.3,0 0.48,0 1.11,-0.09 1.55,-0.28 0.16,-0.47 0.68,-0.51 0.68,-0.84 -0.18,-0.74 -0.4,-0.81 -1.2,-1.07 -0.51,-0.39 -0.66,-0.18 -0.83,-0.18 -0.54,-0.21 -0.7,0.3 -1,0.9 -0.54,0.51 -0.78,1.09 -1.23,1.21 -0.27,-0.2 -0.39,0.07 -0.66,0.07 -1.62,-0.27 -2.21,-0.55 -2.42,-1.67 -0.13,-0.18 -0.08,-0.27 -0.08,-0.4 -0.05,-1.16 0.79,-1.48 2.36,-1.71 0.57,-0.08 1.5,-0.15 2.28,-0.25 0.63,-0.34 1.63,-0.23 2.2,-0.45 0.11,-0.27 0.84,-0.45 1.19,-0.87 0.49,-0.79 0.83,-1.41 0.83,-2.32 0,-0.79 -0.18,-1.54 -0.53,-2.37 z"
   id="path51"
   style="fill:#fff;stroke-width:0" />

















































































































































































































































































































































































































































































































































































































































































































































































































































































































































































































































































































































































































































































































































































































































































































































































































































































































































































































































































</g></svg>
